<?xml version="1.0" encoding="UTF-8" standalone="no"?>
<svg width="16px" height="17px" viewBox="0 0 16 17" version="1.1" xmlns="http://www.w3.org/2000/svg" xmlns:xlink="http://www.w3.org/1999/xlink" xmlns:sketch="http://www.bohemiancoding.com/sketch/ns">
    <!-- Generator: Sketch 3.2.2 (9983) - http://www.bohemiancoding.com/sketch -->
    <title></title>
    <desc>Created with Sketch.</desc>
    <defs></defs>
    <g id="Page-1" stroke="none" stroke-width="1" fill="none" fill-rule="evenodd" sketch:type="MSPage">
        <g id="Desktop-HD" sketch:type="MSArtboardGroup" transform="translate(-1059.000000, -163.000000)" fill="#DE4F4F">
            <g id="Group" sketch:type="MSLayerGroup" transform="translate(947.000000, 150.000000)">
                <path d="M114.75,22.265625 L114.75,19 L124.375,19 L124.375,22.265625 L124.375,26.1328125 C124.375,26.5338562 124.217449,26.734375 123.902344,26.734375 L122.699219,26.734375 L122.699219,28.96875 C122.699219,29.2552098 122.598959,29.4986969 122.398438,29.6992188 C122.197916,29.8997406 121.954429,30 121.667969,30 L121.625,30 C121.424478,30 121.223959,29.9283861 121.023438,29.7851562 C120.765624,29.5846344 120.636719,29.3125017 120.636719,28.96875 L120.636719,26.734375 L118.53125,26.734375 L118.53125,28.96875 C118.53125,29.2552098 118.430991,29.4986969 118.230469,29.6992188 C118.029947,29.8997406 117.78646,30 117.5,30 C117.21354,30 116.970053,29.8997406 116.769531,29.6992188 C116.569009,29.4986969 116.46875,29.2552098 116.46875,28.96875 L116.46875,26.734375 L115.222656,26.734375 C114.907551,26.734375 114.75,26.5338562 114.75,26.1328125 L114.75,22.265625 Z M126.09375,18.3125 C126.38021,18.3125 126.623697,18.4127594 126.824219,18.6132812 C127.024741,18.8138031 127.125,19.0572902 127.125,19.34375 L127.125,23.46875 C127.125,23.7552098 127.024741,23.9986969 126.824219,24.1992188 C126.623697,24.3997406 126.38021,24.5 126.09375,24.5 C125.80729,24.5 125.563803,24.3997406 125.363281,24.1992188 C125.162759,23.9986969 125.0625,23.7552098 125.0625,23.46875 L125.0625,19.34375 C125.0625,19.0572902 125.162759,18.8138031 125.363281,18.6132812 C125.563803,18.4127594 125.80729,18.3125 126.09375,18.3125 L126.09375,18.3125 Z M113.03125,18.3125 C113.31771,18.3125 113.561197,18.4127594 113.761719,18.6132812 C113.962241,18.8138031 114.0625,19.0572902 114.0625,19.34375 L114.0625,23.46875 C114.0625,23.7552098 113.962241,23.9986969 113.761719,24.1992188 C113.561197,24.3997406 113.31771,24.5 113.03125,24.5 C112.74479,24.5 112.501303,24.3997406 112.300781,24.1992188 C112.100259,23.9986969 112,23.7552098 112,23.46875 L112,19.34375 C112,19.0572902 112.100259,18.8138031 112.300781,18.6132812 C112.501303,18.4127594 112.74479,18.3125 113.03125,18.3125 L113.03125,18.3125 Z M121.925781,14.5742188 C122.555993,14.8606785 123.064451,15.2832003 123.451172,15.8417969 C123.837893,16.4003934 124.08138,16.8658836 124.181641,17.2382812 C124.281902,17.6106789 124.346354,17.9687483 124.375,18.3125 L114.75,18.3125 C114.864584,16.4791575 115.666659,15.2330762 117.15625,14.5742188 L116.382812,13.6289062 C116.382812,13.6002603 116.397135,13.5716147 116.425781,13.5429688 L116.554688,13.5 L117.371094,14.4882812 C118.087243,14.2304675 118.817705,14.1015625 119.5625,14.1015625 C120.278649,14.1015625 120.994788,14.2304675 121.710938,14.4882812 L122.570312,13.5 C122.598958,13.5 122.627604,13.5143228 122.65625,13.5429688 L122.742188,13.6289062 L121.925781,14.5742188 Z M117.457031,16.7226562 C117.829429,16.7226562 118.015625,16.5364602 118.015625,16.1640625 C118.015625,16.0208326 117.958334,15.8847663 117.84375,15.7558594 C117.729166,15.6269525 117.600261,15.5625 117.457031,15.5625 C117.285155,15.5625 117.141928,15.6269525 117.027344,15.7558594 C116.91276,15.8847663 116.855469,16.0208326 116.855469,16.1640625 C116.855469,16.3072924 116.919921,16.4361973 117.048828,16.5507812 C117.177735,16.6653652 117.313801,16.7226562 117.457031,16.7226562 L117.457031,16.7226562 Z M121.667969,16.7226562 C121.811199,16.7226562 121.947265,16.6653652 122.076172,16.5507812 C122.205079,16.4361973 122.269531,16.3072924 122.269531,16.1640625 C122.269531,16.0208326 122.205079,15.8847663 122.076172,15.7558594 C121.947265,15.6269525 121.811199,15.5625 121.667969,15.5625 C121.295571,15.5625 121.109375,15.7630188 121.109375,16.1640625 C121.109375,16.5364602 121.295571,16.7226562 121.667969,16.7226562 L121.667969,16.7226562 Z" id="" sketch:type="MSShapeGroup"></path>
            </g>
        </g>
    </g>
</svg>