<?xml version="1.0" encoding="UTF-8" standalone="no"?>
<svg width="17px" height="20px" viewBox="0 0 17 20" version="1.1" xmlns="http://www.w3.org/2000/svg" xmlns:xlink="http://www.w3.org/1999/xlink" xmlns:sketch="http://www.bohemiancoding.com/sketch/ns">
    <!-- Generator: Sketch 3.2.2 (9983) - http://www.bohemiancoding.com/sketch -->
    <title></title>
    <desc>Created with Sketch.</desc>
    <defs></defs>
    <g id="Page-1" stroke="none" stroke-width="1" fill="none" fill-rule="evenodd" sketch:type="MSPage">
        <g id="Desktop-HD" sketch:type="MSArtboardGroup" transform="translate(-982.000000, -161.000000)" fill="#27272B">
            <g id="Group" sketch:type="MSLayerGroup" transform="translate(947.000000, 150.000000)">
                <path d="M47.0859375,16.0703125 C48.4739653,16.0703125 49.6757762,16.7304621 50.6914062,18.0507812 C49.6757762,18.626305 49.0156265,19.4557238 48.7109375,20.5390625 C48.4062485,21.6224012 48.490883,22.6718699 48.9648438,23.6875 C49.4388045,24.7031301 50.2005156,25.4140605 51.25,25.8203125 C50.8776023,26.7005252 50.4713564,27.4791633 50.03125,28.15625 C48.8124939,30.0520928 47.7122445,31 46.7304688,31 L46.6796875,31 C46.3072898,31 45.8248728,30.8645847 45.2324219,30.59375 C44.639971,30.3229153 44.0559925,30.1875 43.4804688,30.1875 C42.8710907,30.1875 42.2701853,30.3229153 41.6777344,30.59375 C41.0852835,30.8645847 40.6028664,31 40.2304688,31 L40.1796875,31 C39.1640574,31 38.0807349,30.1028736 36.9296875,28.3085938 C35.8463487,26.615877 35.2200529,24.8216241 35.0507812,22.9257812 C34.8815096,21.0299384 35.1523402,19.5572969 35.8632812,18.5078125 C36.8789113,16.8828044 38.1992106,16.0703125 39.8242188,16.0703125 C40.3320338,16.0703125 40.9667931,16.2057278 41.7285156,16.4765625 C42.4902382,16.7473972 43.0572898,16.8828125 43.4296875,16.8828125 C43.7682309,16.8828125 44.3098921,16.7473972 45.0546875,16.4765625 C45.7994829,16.2057278 46.4765595,16.0703125 47.0859375,16.0703125 L47.0859375,16.0703125 Z M46.6796875,11.5 C46.8151048,12.5833388 46.5104204,13.6328074 45.765625,14.6484375 C44.9869753,15.6640676 44.0390681,16.171875 42.921875,16.171875 L42.8710938,16.171875 C42.7018221,15.1900993 43.0065065,14.1744844 43.7851562,13.125 C44.6315146,12.1093699 45.5963488,11.5677087 46.6796875,11.5 L46.6796875,11.5 Z" id="" sketch:type="MSShapeGroup"></path>
            </g>
        </g>
    </g>
</svg>