<?xml version="1.0" encoding="UTF-8" standalone="no"?>
<svg width="20px" height="20px" viewBox="0 0 20 20" version="1.1" xmlns="http://www.w3.org/2000/svg" xmlns:xlink="http://www.w3.org/1999/xlink" xmlns:sketch="http://www.bohemiancoding.com/sketch/ns">
    <!-- Generator: Sketch 3.2.2 (9983) - http://www.bohemiancoding.com/sketch -->
    <title>logo-sq-blue</title>
    <desc>Created with Sketch.</desc>
    <defs></defs>
    <g id="Page-1" stroke="none" stroke-width="1" fill="none" fill-rule="evenodd" sketch:type="MSPage">
        <g id="Desktop-HD" sketch:type="MSArtboardGroup" transform="translate(-472.000000, -638.000000)">
            <g id="logo-sq-blue" sketch:type="MSLayerGroup" transform="translate(472.000000, 638.000000)">
                <path d="M0,0 L20,0 L20,19.997913 L0,19.997913 L0,0 Z" id="Fill-1" fill="#DE4F4F" sketch:type="MSShapeGroup"></path>
                <path d="M7.5826087,5.09568696 L7.5826087,14.8347826 L8.79026087,14.8347826 C9.47196522,14.8347826 9.8810087,14.4841739 9.8810087,13.5102609 L9.8810087,6.4202087 C9.8810087,5.44633043 9.47196522,5.09568696 8.79026087,5.09568696 L7.5826087,5.09568696 L7.5826087,5.09568696 Z M5.44,3.14789565 L8.82918261,3.14789565 C10.9717913,3.14789565 12.0236174,4.33606957 12.0236174,6.5176 L12.0236174,13.4129043 C12.0236174,15.5944348 10.9717913,16.7826087 8.82918261,16.7826087 L5.44,16.7826087 L5.44,3.14789565 L5.44,3.14789565 Z" id="Fill-3" fill="#27272B" sketch:type="MSShapeGroup"></path>
                <path d="M13.1086957,8.0173913 L14.486087,8.0173913 L14.486087,16.7826087 L13.1086957,16.7826087 L13.1086957,8.0173913 Z" id="Fill-4" fill="#27272B" sketch:type="MSShapeGroup"></path>
            </g>
        </g>
    </g>
</svg>