<?xml version="1.0" encoding="UTF-8" standalone="no"?>
<svg width="304px" height="71px" viewBox="0 0 304 71" version="1.1" xmlns="http://www.w3.org/2000/svg" xmlns:xlink="http://www.w3.org/1999/xlink" xmlns:sketch="http://www.bohemiancoding.com/sketch/ns">
    <!-- Generator: Sketch 3.2.2 (9983) - http://www.bohemiancoding.com/sketch -->
    <title>logo</title>
    <desc>Created with Sketch.</desc>
    <defs></defs>
    <g id="Page-1" stroke="none" stroke-width="1" fill="none" fill-rule="evenodd" sketch:type="MSPage">
        <g id="Artboard-1" sketch:type="MSArtboardGroup" transform="translate(-24.000000, -14.000000)">
            <g id="logo" sketch:type="MSLayerGroup" transform="translate(24.000000, 14.000000)">
                <g id="Mark" transform="translate(0.000000, 1.000000)" sketch:type="MSShapeGroup">
                    <circle id="Oval" fill="#DE4F4F" cx="34" cy="35" r="6"></circle>
                    <path d="M36,2 C36,2.267 35.946,2.513 35.854,2.747 C35.56,3.48 34.84,4 34,4 C33.16,4 32.44,3.48 32.146,2.747 C32.054,2.513 32,2.267 32,2 C32,1.793 32.033,1.6 32.093,1.414 C32.34,0.593 33.101,0 34,0 C34.899,0 35.66,0.593 35.907,1.414 C35.967,1.6 36,1.793 36,2 L36,2 Z" id="Shape" fill="#DE4F4F"></path>
                    <path d="M36,68 C36,68.206 35.967,68.399 35.907,68.587 C35.66,69.407 34.899,70 34,70 C33.101,70 32.34,69.407 32.093,68.587 C32.033,68.399 32,68.206 32,68 C32,67.733 32.054,67.487 32.146,67.253 C32.44,66.521 33.16,66 34,66 C34.84,66 35.56,66.521 35.854,67.253 C35.946,67.487 36,67.733 36,68 L36,68 Z" id="Shape" fill="#DE4F4F"></path>
                    <path d="M54.187,17.565 C54.113,17.691 54.02,17.805 53.914,17.911 C53.694,18.131 53.428,18.291 53.147,18.384 C52.448,18.624 51.642,18.464 51.089,17.911 C50.535,17.358 50.376,16.552 50.615,15.853 C50.709,15.573 50.869,15.307 51.089,15.087 C51.195,14.981 51.309,14.887 51.436,14.814 C52.207,14.321 53.241,14.414 53.914,15.087 C54.587,15.76 54.679,16.792 54.187,17.565 L54.187,17.565 Z" id="Shape" fill="#DE4F4F"></path>
                    <path d="M17.385,54.146 C17.291,54.426 17.131,54.693 16.911,54.913 C16.805,55.019 16.691,55.112 16.564,55.186 C15.793,55.678 14.759,55.585 14.086,54.913 C13.413,54.241 13.32,53.207 13.813,52.435 C13.887,52.308 13.98,52.195 14.086,52.088 C14.306,51.868 14.572,51.708 14.853,51.614 C15.552,51.375 16.358,51.535 16.911,52.088 C17.465,52.642 17.624,53.447 17.385,54.146 L17.385,54.146 Z" id="Shape" fill="#DE4F4F"></path>
                    <path d="M55,35 C55,35.926 54.38,36.7 53.526,36.927 C53.36,36.974 53.18,37 53,37 C52.714,37 52.44,36.94 52.193,36.827 C51.487,36.521 51,35.82 51,35 C51,34.18 51.487,33.48 52.193,33.173 C52.44,33.06 52.714,33 53,33 C53.18,33 53.36,33.027 53.526,33.073 C54.38,33.3 55,34.073 55,35 L55,35 Z" id="Shape" fill="#DE4F4F"></path>
                    <path d="M17,35 C17,35.82 16.513,36.521 15.807,36.827 C15.56,36.94 15.286,37 15,37 C14.82,37 14.64,36.974 14.474,36.927 C13.62,36.7 13,35.926 13,35 C13,34.073 13.62,33.3 14.474,33.073 C14.64,33.027 14.82,33 15,33 C15.286,33 15.56,33.06 15.807,33.173 C16.513,33.48 17,34.18 17,35 L17,35 Z" id="Shape" fill="#DE4F4F"></path>
                    <path d="M43.912,44.912 C43.239,45.585 42.193,45.678 41.421,45.179 C41.301,45.106 41.188,45.012 41.088,44.912 C40.861,44.685 40.694,44.413 40.609,44.126 C40.376,43.434 40.535,42.641 41.088,42.088 C41.641,41.534 42.434,41.375 43.126,41.609 C43.413,41.695 43.686,41.862 43.912,42.088 C44.012,42.188 44.105,42.301 44.179,42.421 C44.678,43.193 44.585,44.239 43.912,44.912 L43.912,44.912 Z" id="Shape" fill="#DE4F4F"></path>
                    <path d="M26.912,27.913 C26.359,28.466 25.566,28.625 24.873,28.392 C24.587,28.305 24.314,28.139 24.088,27.913 C23.988,27.813 23.895,27.7 23.821,27.58 C23.322,26.808 23.415,25.762 24.088,25.088 C24.761,24.416 25.807,24.322 26.579,24.822 C26.699,24.895 26.812,24.989 26.912,25.088 C27.139,25.315 27.306,25.588 27.391,25.875 C27.625,26.567 27.466,27.359 26.912,27.913 L26.912,27.913 Z" id="Shape" fill="#DE4F4F"></path>
                    <path d="M34,22 C32.25,22 30.58,22.35 29.05,22.98 C29.54,23.48 29.92,24.06 30.16,24.69 C31.35,24.24 32.65,24 34,24 C40.07,24 45,28.93 45,35 C45,36.35 44.76,37.65 44.31,38.84 C44.941,39.08 45.52,39.45 46.02,39.941 C46.65,38.41 47,36.75 47,35 C47,27.83 41.17,22 34,22 L34,22 Z M37.84,45.31 C36.65,45.76 35.35,46 34,46 C27.93,46 23,41.07 23,35 C23,33.65 23.24,32.35 23.69,31.16 C23.059,30.92 22.48,30.55 21.98,30.06 C21.35,31.59 21,33.25 21,35 C21,42.17 26.83,48 34,48 C35.75,48 37.41,47.65 38.94,47.02 C38.45,46.52 38.08,45.94 37.84,45.31 L37.84,45.31 Z" id="Shape" fill="#999999"></path>
                    <path d="M34,15 C24.69,15 16.84,21.4 14.62,30.02 C14.74,30 14.87,30 15,30 C15.57,30 16.12,30.09 16.64,30.28 C18.71,22.63 25.71,17 34,17 C42.28,17 49.28,22.63 51.36,30.27 C51.87,30.1 52.43,30 53,30 C53.13,30 53.26,30 53.38,30.02 C51.16,21.4 43.31,15 34,15 L34,15 Z M53,40 C52.43,40 51.87,39.9 51.36,39.73 C49.28,47.37 42.28,53 34,53 C25.72,53 18.72,47.37 16.64,39.73 C16.13,39.9 15.57,40 15,40 C14.87,40 14.74,40 14.62,39.98 C16.84,48.6 24.69,55 34,55 C43.31,55 51.16,48.6 53.38,39.98 C53.26,40 53.13,40 53,40 L53,40 Z" id="Shape" fill="#999999"></path>
                    <path d="M56.28,19.77 C56.21,19.86 56.13,19.95 56.04,20.04 C55.64,20.44 55.19,20.76 54.7,20.99 C57.41,24.99 59,29.81 59,35 C59,48.79 47.79,60 34,60 C28.81,60 23.99,58.41 19.99,55.7 C19.76,56.179 19.44,56.639 19.04,57.04 C18.95,57.13 18.86,57.21 18.769,57.28 C23.11,60.26 28.36,62 34,62 C48.89,62 61,49.89 61,35 C61,29.36 59.26,24.11 56.28,19.77 L56.28,19.77 Z M34,8 C19.11,8 7,20.11 7,35 C7,40.64 8.74,45.89 11.72,50.23 C11.79,50.139 11.87,50.049 11.96,49.959 C12.36,49.559 12.81,49.239 13.3,49.009 C10.59,45.01 9,40.19 9,35 C9,21.21 20.21,10 34,10 C39.19,10 44.01,11.59 48.01,14.3 C48.24,13.82 48.56,13.36 48.96,12.96 C49.05,12.87 49.14,12.79 49.231,12.72 C44.89,9.74 39.64,8 34,8 L34,8 Z" id="Shape" fill="#999999"></path>
                    <path d="M38.95,1.36 C38.99,1.57 39,1.78 39,2 C39,2.47 38.93,2.93 38.81,3.36 C54.18,5.69 66,18.98 66,35 C66,51.01 54.18,64.31 38.81,66.64 C38.93,67.07 39,67.53 39,68 C39,68.22 38.99,68.43 38.95,68.64 C55.36,66.24 68,52.07 68,35 C68,17.93 55.36,3.76 38.95,1.36 L38.95,1.36 Z M2,35 C2,18.98 13.82,5.69 29.19,3.36 C29.07,2.93 29,2.47 29,2 C29,1.78 29.01,1.57 29.05,1.36 C12.64,3.76 0,17.93 0,35 C0,52.07 12.64,66.24 29.05,68.64 C29.01,68.43 29,68.22 29,68 C29,67.53 29.07,67.07 29.19,66.64 C13.82,64.31 2,51.01 2,35 L2,35 Z" id="Shape" fill="#999999"></path>
                </g>
                <path d="M120.887401,41.9888868 L120.887401,22.096606 C120.887401,19.1392536 120.310819,16.9817206 119.157638,15.6239424 C118.004456,14.2661643 116.237511,13.5872854 113.85675,13.5872854 C110.7506,13.5872854 108.453571,14.4428588 106.965595,16.1540313 C105.477619,17.8652038 104.733642,20.5528202 104.733642,24.2169613 L104.733642,41.9888868 L101.915801,41.9888868 L101.915801,21.2596237 C101.915801,16.1447059 99.5722742,13.5872854 94.8851495,13.5872854 C91.7046006,13.5872854 89.3889726,14.5126066 87.9381959,16.3632769 C86.4874192,18.2139471 85.7620418,21.1759051 85.7620418,25.2492396 L85.7620418,41.9888868 L83,41.9888868 L83,11.6622259 L85.2877518,11.6622259 L85.8736394,15.8192383 L86.0410359,15.8192383 C86.8780225,14.3126625 88.0683855,13.1455488 89.6121606,12.3178621 C91.1559358,11.4901754 92.8577829,11.0763383 94.717753,11.0763383 C99.4978762,11.0763383 102.566781,12.8711825 103.924559,16.4609248 L104.036157,16.4609248 C105.021941,14.7311526 106.34715,13.4012939 108.011823,12.4713089 C109.676496,11.5413238 111.568987,11.0763383 113.689353,11.0763383 C117.0001,11.0763383 119.483123,11.9598108 121.138496,13.7267824 C122.79387,15.493754 123.621544,18.3022667 123.621544,22.1524048 L123.621544,41.9888868 L120.887401,41.9888868 Z M145.689979,42.546875 C141.28185,42.546875 137.845606,41.1891172 135.381146,38.4735609 C132.916686,35.7580045 131.684474,31.9544227 131.684474,27.0627013 C131.684474,22.2267791 132.874837,18.3534495 135.255599,15.4425963 C137.63636,12.5317431 140.844761,11.0763383 144.880896,11.0763383 C148.452038,11.0763383 151.269851,12.3224996 153.334418,14.8148595 C155.398984,17.3072194 156.431252,20.6923142 156.431252,24.9702454 L156.431252,27.2021984 L134.586013,27.2021984 C134.623212,31.3685314 135.595032,34.5490326 137.501501,36.7437973 C139.407971,38.938562 142.137436,40.0359279 145.689979,40.0359279 C147.419751,40.0359279 148.940254,39.9150317 150.251533,39.6732356 C151.562812,39.4314395 153.22281,38.9106556 155.231578,38.1108685 L155.231578,40.6218156 C153.520405,41.3658036 151.939454,41.8726379 150.488678,42.1423335 C149.037901,42.4120292 147.438351,42.546875 145.689979,42.546875 L145.689979,42.546875 Z M144.880896,13.5314865 C141.960743,13.5314865 139.617216,14.4940066 137.850244,16.4190757 C136.083272,18.3441447 135.051004,21.1201085 134.753409,24.7470502 L153.501814,24.7470502 C153.501814,21.2317067 152.739238,18.4836421 151.214062,16.5027739 C149.688887,14.5219058 147.577852,13.5314865 144.880896,13.5314865 L144.880896,13.5314865 Z M172.808207,40.0917267 C174.556579,40.0917267 176.081732,39.9429314 177.383711,39.6453362 L177.383711,41.8772891 C176.044532,42.3236819 174.50078,42.546875 172.752408,42.546875 C170.074051,42.546875 168.097863,41.8307973 166.823783,40.3986203 C165.549704,38.9664433 164.912674,36.7159132 164.912674,33.6469626 L164.912674,14.0615754 L160.420868,14.0615754 L160.420868,12.4434095 L164.912674,11.1879359 L166.307644,4.32468058 L167.730514,4.32468058 L167.730514,11.6622259 L176.630427,11.6622259 L176.630427,14.0615754 L167.730514,14.0615754 L167.730514,33.2563708 C167.730514,35.5813334 168.139701,37.30178 168.958088,38.417762 C169.776475,39.5337441 171.059835,40.0917267 172.808207,40.0917267 L172.808207,40.0917267 Z M196.187914,42.546875 C191.779785,42.546875 188.343542,41.1891172 185.879082,38.4735609 C183.414621,35.7580045 182.18241,31.9544227 182.18241,27.0627013 C182.18241,22.2267791 183.372773,18.3534495 185.753534,15.4425963 C188.134296,12.5317431 191.342696,11.0763383 195.378831,11.0763383 C198.949974,11.0763383 201.767786,12.3224996 203.832353,14.8148595 C205.89692,17.3072194 206.929188,20.6923142 206.929188,24.9702454 L206.929188,27.2021984 L185.083948,27.2021984 C185.121148,31.3685314 186.092968,34.5490326 187.999437,36.7437973 C189.905906,38.938562 192.635372,40.0359279 196.187914,40.0359279 C197.917687,40.0359279 199.438189,39.9150317 200.749468,39.6732356 C202.060747,39.4314395 203.720746,38.9106556 205.729513,38.1108685 L205.729513,40.6218156 C204.018341,41.3658036 202.43739,41.8726379 200.986613,42.1423335 C199.535837,42.4120292 197.936286,42.546875 196.187914,42.546875 L196.187914,42.546875 Z M195.378831,13.5314865 C192.458678,13.5314865 190.115151,14.4940066 188.34818,16.4190757 C186.581208,18.3441447 185.54894,21.1201085 185.251345,24.7470502 L203.99975,24.7470502 C203.99975,21.2317067 203.237173,18.4836421 201.711998,16.5027739 C200.186823,14.5219058 198.075788,13.5314865 195.378831,13.5314865 L195.378831,13.5314865 Z M240.380583,26.7837072 C240.380583,31.7312277 239.18092,35.5952576 236.781559,38.3759129 C234.382197,41.1565682 231.0715,42.546875 226.849368,42.546875 C224.189611,42.546875 221.846084,41.9051949 219.818716,40.6218156 C217.791349,39.3384362 216.238297,37.4970934 215.159515,35.097732 C214.080732,32.6983706 213.541349,29.9270567 213.541349,26.7837072 C213.541349,21.8361868 214.741011,17.9814566 217.140373,15.219401 C219.539734,12.4573454 222.831832,11.0763383 227.016765,11.0763383 C231.183098,11.0763383 234.451946,12.4759448 236.823408,15.2751998 C239.19487,18.0744548 240.380583,21.9105856 240.380583,26.7837072 L240.380583,26.7837072 Z M216.442888,26.7837072 C216.442888,30.9500402 217.358909,34.2002892 219.19098,36.5345517 C221.02305,38.8688142 223.61302,40.0359279 226.960966,40.0359279 C230.308912,40.0359279 232.898882,38.8688142 234.730952,36.5345517 C236.563023,34.2002892 237.479044,30.9500402 237.479044,26.7837072 C237.479044,22.5987745 236.553723,19.3531754 234.703053,17.0468124 C232.852382,14.7404495 230.253113,13.5872854 226.905167,13.5872854 C223.557221,13.5872854 220.976551,14.7357997 219.16308,17.0328627 C217.349609,19.3299258 216.442888,22.5801748 216.442888,26.7837072 L216.442888,26.7837072 Z M260.719254,11.0763383 C262.002634,11.0763383 263.378991,11.2065342 264.848367,11.46693 L264.318278,14.1173742 C263.053499,13.8011793 261.74224,13.6430842 260.384461,13.6430842 C257.799103,13.6430842 255.678769,14.7404501 254.023395,16.9352148 C252.368022,19.1299795 251.540348,21.9012934 251.540348,25.2492396 L251.540348,41.9888868 L248.778306,41.9888868 L248.778306,11.6622259 L251.121857,11.6622259 L251.400851,17.1305107 L251.596147,17.1305107 C252.842327,14.8985466 254.172185,13.3315453 255.585763,12.4294598 C256.99934,11.5273743 258.710487,11.0763383 260.719254,11.0763383 L260.719254,11.0763383 Z M273.776179,41.9888868 L271.014137,41.9888868 L271.014137,11.6622259 L273.776179,11.6622259 L273.776179,41.9888868 Z M270.623546,3.23660351 C270.623546,1.45103222 271.209427,0.558259962 272.381209,0.558259962 C272.957799,0.558259962 273.408835,0.790752737 273.73433,1.25574526 C274.059825,1.72073779 274.22257,2.38101727 274.22257,3.23660351 C274.22257,4.07359006 274.059825,4.73386954 273.73433,5.21746176 C273.408835,5.70105399 272.957799,5.94284648 272.381209,5.94284648 C271.209427,5.94284648 270.623546,5.04077451 270.623546,3.23660351 L270.623546,3.23660351 Z M296.03991,42.546875 C291.70618,42.546875 288.311785,41.1798175 285.856625,38.4456614 C283.401464,35.7115054 282.173902,31.8986239 282.173902,27.0069025 C282.173902,21.9849833 283.447963,18.0744548 285.996122,15.2751998 C288.544281,12.4759448 292.031672,11.0763383 296.458401,11.0763383 C299.080959,11.0763383 301.591881,11.5320241 303.991242,12.4434095 L303.237958,14.8985577 C300.6154,14.0243718 298.336971,13.5872854 296.402602,13.5872854 C292.682662,13.5872854 289.86485,14.7357997 287.94908,17.0328627 C286.033311,19.3299258 285.075441,22.6359731 285.075441,26.9511037 C285.075441,31.0430379 286.033311,34.2467884 287.94908,36.5624511 C289.86485,38.8781139 292.543166,40.0359279 295.984111,40.0359279 C298.736867,40.0359279 301.294287,39.5430432 303.656449,38.5572591 L303.656449,41.124005 C301.72208,42.0725897 299.183259,42.546875 296.03991,42.546875 L296.03991,42.546875 Z" id="meteoric" fill="#FFFFFF" sketch:type="MSShapeGroup"></path>
                <path d="M88.0556641,63 L83.5317383,51.7939453 L83.465332,51.7939453 C83.5096031,52.4801467 83.5317383,53.1829391 83.5317383,53.9023438 L83.5317383,63 L82.7182617,63 L82.7182617,50.8642578 L84.0297852,50.8642578 L88.3295898,61.5390625 L88.3793945,61.5390625 L92.6791992,50.8642578 L93.9575195,50.8642578 L93.9575195,63 L93.1025391,63 L93.1025391,53.8027344 C93.1025391,53.1608041 93.1357419,52.4967482 93.2021484,51.8105469 L93.1357422,51.8105469 L88.5952148,63 L88.0556641,63 Z M113.218066,63 L106.585742,63 L106.585742,50.8642578 L113.218066,50.8642578 L113.218066,51.6445312 L107.432422,51.6445312 L107.432422,56.2348633 L112.894336,56.2348633 L112.894336,57.0151367 L107.432422,57.0151367 L107.432422,62.2197266 L113.218066,62.2197266 L113.218066,63 Z M128.328222,63 L127.473242,63 L127.473242,51.6611328 L123.530371,51.6611328 L123.530371,50.8642578 L132.271093,50.8642578 L132.271093,51.6611328 L128.328222,51.6611328 L128.328222,63 Z M149.904687,63 L143.272363,63 L143.272363,50.8642578 L149.904687,50.8642578 L149.904687,51.6445312 L144.119042,51.6445312 L144.119042,56.2348633 L149.580956,56.2348633 L149.580956,57.0151367 L144.119042,57.0151367 L144.119042,62.2197266 L149.904687,62.2197266 L149.904687,63 Z M172.053905,56.9155273 C172.053905,58.8413182 171.572465,60.3644964 170.60957,61.4851074 C169.646674,62.6057185 168.318562,63.1660156 166.625195,63.1660156 C164.937361,63.1660156 163.612016,62.6057185 162.64912,61.4851074 C161.686225,60.3644964 161.204784,58.8357844 161.204784,56.8989258 C161.204784,54.967601 161.690375,53.4471898 162.661572,52.3376465 C163.632768,51.2281032 164.959496,50.6733398 166.641796,50.6733398 C168.335164,50.6733398 169.660509,51.2308701 170.61787,52.3459473 C171.575232,53.4610245 172.053905,54.9842026 172.053905,56.9155273 L172.053905,56.9155273 Z M162.126171,56.9155273 C162.126171,58.6531662 162.513537,59.9964959 163.28828,60.9455566 C164.063024,61.8946174 165.175318,62.3691406 166.625195,62.3691406 C168.086139,62.3691406 169.202583,61.8987677 169.97456,60.9580078 C170.746536,60.0172479 171.132519,58.6697679 171.132519,56.9155273 C171.132519,55.1668207 170.746536,53.8262579 169.97456,52.8937988 C169.202583,51.9613397 168.091673,51.4951172 166.641796,51.4951172 C165.197453,51.4951172 164.083776,51.9654901 163.300732,52.90625 C162.517687,53.8470099 162.126171,55.1834223 162.126171,56.9155273 L162.126171,56.9155273 Z M184.889647,57.7124023 L184.889647,63 L184.042968,63 L184.042968,50.8642578 L186.93164,50.8642578 C188.436856,50.8642578 189.549149,51.1423312 190.268554,51.6984863 C190.987958,52.2546415 191.347655,53.0916285 191.347655,54.2094727 C191.347655,55.0229533 191.133221,55.7091443 190.704345,56.2680664 C190.275469,56.8269885 189.623864,57.2281889 188.749511,57.4716797 L192.044921,63 L191.032226,63 L187.902831,57.7124023 L184.889647,57.7124023 Z M184.889647,56.9819336 L187.205565,56.9819336 C188.229334,56.9819336 189.023434,56.7536644 189.58789,56.2971191 C190.152346,55.8405739 190.434569,55.1668339 190.434569,54.2758789 C190.434569,53.3517206 190.157879,52.6793641 189.604491,52.2587891 C189.051103,51.838214 188.149094,51.6279297 186.898437,51.6279297 L184.889647,51.6279297 L184.889647,56.9819336 Z M222.823631,63 L222.823631,50.8642578 L223.670311,50.8642578 L223.670311,63 L222.823631,63 Z M247.083494,56.9155273 C247.083494,58.8413182 246.602054,60.3644964 245.639158,61.4851074 C244.676263,62.6057185 243.348151,63.1660156 241.654783,63.1660156 C239.966949,63.1660156 238.641604,62.6057185 237.678709,61.4851074 C236.715814,60.3644964 236.234373,58.8357844 236.234373,56.8989258 C236.234373,54.967601 236.719964,53.4471898 237.69116,52.3376465 C238.662356,51.2281032 239.989085,50.6733398 241.671385,50.6733398 C243.364753,50.6733398 244.690097,51.2308701 245.647459,52.3459473 C246.604821,53.4610245 247.083494,54.9842026 247.083494,56.9155273 L247.083494,56.9155273 Z M237.15576,56.9155273 C237.15576,58.6531662 237.543126,59.9964959 238.317869,60.9455566 C239.092613,61.8946174 240.204906,62.3691406 241.654783,62.3691406 C243.115728,62.3691406 244.232172,61.8987677 245.004148,60.9580078 C245.776125,60.0172479 246.162107,58.6697679 246.162107,56.9155273 C246.162107,55.1668207 245.776125,53.8262579 245.004148,52.8937988 C244.232172,51.9613397 243.121262,51.4951172 241.671385,51.4951172 C240.227042,51.4951172 239.113365,51.9654901 238.33032,52.90625 C237.547276,53.8470099 237.15576,55.1834223 237.15576,56.9155273 L237.15576,56.9155273 Z M268.471287,63 L267.616306,63 L260.42783,52.2255859 L260.361423,52.2255859 C260.42783,53.5094465 260.461033,54.4778613 260.461033,55.1308594 L260.461033,63 L259.647556,63 L259.647556,50.8642578 L260.494236,50.8642578 L267.674412,61.6220703 L267.724216,61.6220703 C267.674412,60.6259716 267.649509,59.679692 267.649509,58.7832031 L267.649509,50.8642578 L268.471287,50.8642578 L268.471287,63 Z M281.68281,63 L281.68281,50.8642578 L282.52949,50.8642578 L282.52949,63 L281.68281,63 Z M300.9207,51.4536133 C299.398883,51.4536133 298.200815,51.9405876 297.326462,52.9145508 C296.452108,53.888514 296.014938,55.2221595 296.014938,56.9155273 C296.014938,58.6476324 296.427206,59.9923455 297.251755,60.949707 C298.076303,61.9070686 299.255002,62.3857422 300.787888,62.3857422 C301.806122,62.3857422 302.741334,62.2556979 303.593552,61.9956055 L303.593552,62.7426758 C302.791139,63.0249038 301.789521,63.1660156 300.588669,63.1660156 C298.884233,63.1660156 297.542287,62.6154026 296.56279,61.5141602 C295.583293,60.4129177 295.093552,58.8745216 295.093552,56.8989258 C295.093552,55.6648701 295.327355,54.5774787 295.794968,53.6367188 C296.262581,52.6959588 296.934937,51.9696477 297.812057,51.4577637 C298.689178,50.9458796 299.70878,50.6899414 300.870895,50.6899414 C302.055146,50.6899414 303.114869,50.9112934 304.050095,51.3540039 L303.709763,52.1176758 C302.824341,51.6749652 301.894663,51.4536133 300.9207,51.4536133 L300.9207,51.4536133 Z" id="METEOR+IONIC" fill="#AAAAAA" sketch:type="MSShapeGroup"></path>
                <path d="M206.814745,56.6582031 L210.417284,56.6582031 L210.417284,57.3388672 L206.814745,57.3388672 L206.814745,60.9248047 L206.134081,60.9248047 L206.134081,57.3388672 L202.548143,57.3388672 L202.548143,56.6582031 L206.134081,56.6582031 L206.134081,53.0556641 L206.814745,53.0556641 L206.814745,56.6582031 Z" id="Path" fill="#DE4F4F" sketch:type="MSShapeGroup"></path>
            </g>
        </g>
    </g>
</svg>