<?xml version="1.0" encoding="UTF-8" standalone="no"?>
<svg width="430px" height="101px" viewBox="0 0 430 101" version="1.1" xmlns="http://www.w3.org/2000/svg" xmlns:xlink="http://www.w3.org/1999/xlink" xmlns:sketch="http://www.bohemiancoding.com/sketch/ns">
    <!-- Generator: Sketch 3.2.2 (9983) - http://www.bohemiancoding.com/sketch -->
    <title>meteoric + METEOR+IONIC + Mark</title>
    <desc>Created with Sketch.</desc>
    <defs></defs>
    <g id="Page-1" stroke="none" stroke-width="1" fill="none" fill-rule="evenodd" sketch:type="MSPage">
        <g id="Desktop-HD" sketch:type="MSArtboardGroup" transform="translate(-248.000000, -295.000000)">
            <g id="meteoric-+-METEOR+IONIC-+-Mark" sketch:type="MSLayerGroup" transform="translate(248.000000, 295.000000)">
                <g id="Mark" sketch:type="MSShapeGroup">
                    <ellipse id="Oval" fill="#DE4F4F" cx="48.8609272" cy="50.5" rx="8.62251656" ry="8.65714286"></ellipse>
                    <path d="M51.7350993,2.88571429 C51.7350993,3.27095714 51.6574967,3.6259 51.5252848,3.96352857 C51.1027815,5.02114286 50.0680795,5.77142857 48.8609272,5.77142857 C47.6537748,5.77142857 46.6190728,5.02114286 46.1965695,3.96352857 C46.0643576,3.6259 45.986755,3.27095714 45.986755,2.88571429 C45.986755,2.58704286 46.0341788,2.30857143 46.120404,2.0402 C46.4753642,0.855614286 47.5689868,0 48.8609272,0 C50.1528675,0 51.2464901,0.855614286 51.6014503,2.0402 C51.6876755,2.30857143 51.7350993,2.58704286 51.7350993,2.88571429 L51.7350993,2.88571429 Z" id="Shape" fill="#DE4F4F"></path>
                    <path d="M51.7350993,98.1142857 C51.7350993,98.4115143 51.6876755,98.6899857 51.6014503,98.9612429 C51.2464901,100.144386 50.1528675,101 48.8609272,101 C47.5689868,101 46.4753642,100.144386 46.120404,98.9612429 C46.0341788,98.6899857 45.986755,98.4115143 45.986755,98.1142857 C45.986755,97.7290429 46.0643576,97.3741 46.1965695,97.0364714 C46.6190728,95.9803 47.6537748,95.2285714 48.8609272,95.2285714 C50.0680795,95.2285714 51.1027815,95.9803 51.5252848,97.0364714 C51.6574967,97.3741 51.7350993,97.7290429 51.7350993,98.1142857 L51.7350993,98.1142857 Z" id="Shape" fill="#DE4F4F"></path>
                    <path d="M77.8713841,25.3437857 C77.7650397,25.5255857 77.6313907,25.6900714 77.4790596,25.8430143 C77.1629007,26.1604429 76.7806358,26.3913 76.3768146,26.5254857 C75.3722914,26.8717714 74.214,26.6409143 73.4192914,25.8430143 C72.6231457,25.0451143 72.394649,23.8821714 72.7381126,22.8736143 C72.8731987,22.4696143 73.1031325,22.0858143 73.4192914,21.7683857 C73.5716225,21.6154429 73.7354503,21.4798143 73.9179603,21.3744857 C75.0259536,20.6631571 76.5119007,20.7973429 77.4790596,21.7683857 C78.4462185,22.7394286 78.5784305,24.2284571 77.8713841,25.3437857 L77.8713841,25.3437857 Z" id="Shape" fill="#DE4F4F"></path>
                    <path d="M24.9837417,78.1249429 C24.8486556,78.5289429 24.6187219,78.9141857 24.3025629,79.2316143 C24.1502318,79.3845571 23.986404,79.5187429 23.803894,79.6255143 C22.6959007,80.3354 21.2099536,80.2012143 20.2427947,79.2316143 C19.2756358,78.2620143 19.1419868,76.7701 19.8504702,75.6562143 C19.9568146,75.4729714 20.0904636,75.3099286 20.2427947,75.1555429 C20.5589536,74.8381143 20.9412185,74.6072571 21.3450397,74.4716286 C22.3495629,74.1267857 23.5078543,74.3576429 24.3025629,75.1555429 C25.0987086,75.9548857 25.3272053,77.1163857 24.9837417,78.1249429 L24.9837417,78.1249429 Z" id="Shape" fill="#DE4F4F"></path>
                    <path d="M79.0397351,50.5 C79.0397351,51.8360857 78.1487417,52.9528571 76.9214702,53.2803857 C76.6829139,53.3482 76.4242384,53.3857143 76.1655629,53.3857143 C75.7545563,53.3857143 75.3607947,53.2991429 75.0058344,53.1361 C73.9912517,52.6945857 73.2913907,51.6831429 73.2913907,50.5 C73.2913907,49.3168571 73.9912517,48.3068571 75.0058344,47.8639 C75.3607947,47.7008571 75.7545563,47.6142857 76.1655629,47.6142857 C76.4242384,47.6142857 76.6829139,47.6532429 76.9214702,47.7196143 C78.1487417,48.0471429 79.0397351,49.1624714 79.0397351,50.5 L79.0397351,50.5 Z" id="Shape" fill="#DE4F4F"></path>
                    <path d="M24.4304636,50.5 C24.4304636,51.6831429 23.7306026,52.6945857 22.7160199,53.1361 C22.3610596,53.2991429 21.967298,53.3857143 21.5562914,53.3857143 C21.2976159,53.3857143 21.0389404,53.3482 20.8003841,53.2803857 C19.5731126,52.9528571 18.6821192,51.8360857 18.6821192,50.5 C18.6821192,49.1624714 19.5731126,48.0471429 20.8003841,47.7196143 C21.0389404,47.6532429 21.2976159,47.6142857 21.5562914,47.6142857 C21.967298,47.6142857 22.3610596,47.7008571 22.7160199,47.8639 C23.7306026,48.3068571 24.4304636,49.3168571 24.4304636,50.5 L24.4304636,50.5 Z" id="Shape" fill="#DE4F4F"></path>
                    <path d="M63.1053245,64.8016 C62.1381656,65.7726429 60.6349735,65.9068286 59.525543,65.1868429 C59.3530927,65.0815143 59.190702,64.9458857 59.0469934,64.8016 C58.7207748,64.4740714 58.4807815,64.0816143 58.3586291,63.6675143 C58.0237881,62.6690571 58.2522848,61.5248714 59.0469934,60.7269714 C59.841702,59.9276286 60.9813113,59.6982143 61.9757748,60.0358429 C62.3882185,60.1599286 62.780543,60.4008857 63.1053245,60.7269714 C63.2490331,60.8712571 63.3826821,61.0343 63.4890265,61.2074429 C64.2061325,62.3213286 64.0724834,63.8305571 63.1053245,64.8016 L63.1053245,64.8016 Z" id="Shape" fill="#DE4F4F"></path>
                    <path d="M38.6748609,40.2744714 C37.8801523,41.0723714 36.740543,41.3017857 35.7446424,40.9656 C35.3336358,40.8400714 34.9413113,40.6005571 34.6165298,40.2744714 C34.4728212,40.1301857 34.3391722,39.9671429 34.2328278,39.794 C33.5157219,38.6801143 33.6493709,37.1708857 34.6165298,36.1984 C35.5836887,35.2288 37.0868808,35.0931714 38.1963113,35.8146 C38.3687616,35.9199286 38.5311523,36.0555571 38.6748609,36.1984 C39.0010795,36.5259286 39.2410728,36.9198286 39.3632252,37.3339286 C39.6995033,38.3323857 39.4710066,39.4751286 38.6748609,40.2744714 L38.6748609,40.2744714 Z" id="Shape" fill="#DE4F4F"></path>
                    <path d="M48.8609272,31.7428571 C46.3460265,31.7428571 43.9460927,32.2478571 41.747351,33.1568571 C42.4515232,33.8782857 42.9976159,34.7151429 43.3425166,35.6241429 C45.052649,34.9748571 46.9208609,34.6285714 48.8609272,34.6285714 C57.5840397,34.6285714 64.6688742,41.7418571 64.6688742,50.5 C64.6688742,52.4478571 64.3239735,54.3235714 63.6772848,56.0405714 C64.5840861,56.3868571 65.4161589,56.9207143 66.134702,57.6291571 C67.0400662,55.4201429 67.5430464,53.025 67.5430464,50.5 C67.5430464,40.1547143 59.1648344,31.7428571 48.8609272,31.7428571 L48.8609272,31.7428571 Z M54.3793377,65.3758571 C52.6692053,66.0251429 50.8009934,66.3714286 48.8609272,66.3714286 C40.1378146,66.3714286 33.0529801,59.2581429 33.0529801,50.5 C33.0529801,48.5521429 33.3978808,46.6764286 34.0445695,44.9594286 C33.1377682,44.6131429 32.3056954,44.0792857 31.5871523,43.3722857 C30.6817881,45.5798571 30.1788079,47.975 30.1788079,50.5 C30.1788079,60.8452857 38.5570199,69.2571429 48.8609272,69.2571429 C51.3758278,69.2571429 53.7613907,68.7521429 55.9601325,67.8431429 C55.2559603,67.1217143 54.7242384,66.2848571 54.3793377,65.3758571 L54.3793377,65.3758571 Z" id="Shape" fill="#999999"></path>
                    <path d="M48.8609272,21.6428571 C35.4816556,21.6428571 24.2005298,30.8771429 21.0101987,43.3145714 C21.182649,43.2857143 21.3694702,43.2857143 21.5562914,43.2857143 C22.3754305,43.2857143 23.1658278,43.4155714 23.9131126,43.6897143 C26.8878808,32.6518571 36.9474834,24.5285714 48.8609272,24.5285714 C60.76,24.5285714 70.8196026,32.6518571 73.8087417,43.6752857 C74.5416556,43.43 75.3464238,43.2857143 76.1655629,43.2857143 C76.3523841,43.2857143 76.5392053,43.2857143 76.7116556,43.3145714 C73.5213245,30.8771429 62.2401987,21.6428571 48.8609272,21.6428571 L48.8609272,21.6428571 Z M76.1655629,57.7142857 C75.3464238,57.7142857 74.5416556,57.57 73.8087417,57.3247143 C70.8196026,68.3481429 60.76,76.4714286 48.8609272,76.4714286 C36.9618543,76.4714286 26.9022517,68.3481429 23.9131126,57.3247143 C23.1801987,57.57 22.3754305,57.7142857 21.5562914,57.7142857 C21.3694702,57.7142857 21.182649,57.7142857 21.0101987,57.6854286 C24.2005298,70.1228571 35.4816556,79.3571429 48.8609272,79.3571429 C62.2401987,79.3571429 73.5213245,70.1228571 76.7116556,57.6854286 C76.5392053,57.7142857 76.3523841,57.7142857 76.1655629,57.7142857 L76.1655629,57.7142857 Z" id="Shape" fill="#999999"></path>
                    <path d="M80.8792053,28.5252857 C80.7786093,28.6551429 80.6636424,28.785 80.5343046,28.9148571 C79.9594702,29.492 79.3127815,29.9537143 78.6086093,30.2855714 C82.5031126,36.057 84.7880795,43.0115714 84.7880795,50.5 C84.7880795,70.397 68.6783444,86.5714286 48.8609272,86.5714286 C41.4024503,86.5714286 34.4756954,84.2772857 28.727351,80.3671429 C28.3968212,81.0582714 27.9369536,81.7219857 27.3621192,82.3005714 C27.2327815,82.4304286 27.1034437,82.5458571 26.9726689,82.6468571 C33.2110596,86.9465714 40.7557616,89.4571429 48.8609272,89.4571429 C70.2591391,89.4571429 87.6622517,71.9841429 87.6622517,50.5 C87.6622517,42.3622857 85.1617219,34.7872857 80.8792053,28.5252857 L80.8792053,28.5252857 Z M48.8609272,11.5428571 C27.4627152,11.5428571 10.0596026,29.0158571 10.0596026,50.5 C10.0596026,58.6377143 12.5601325,66.2127143 16.842649,72.4747143 C16.943245,72.3434143 17.0582119,72.2135571 17.1875497,72.0837 C17.7623841,71.5065571 18.4090728,71.0448429 19.113245,70.7129857 C15.2187417,64.943 12.9337748,57.9884286 12.9337748,50.5 C12.9337748,30.603 29.0435099,14.4285714 48.8609272,14.4285714 C56.319404,14.4285714 63.2461589,16.7227143 68.9945033,20.6328571 C69.3250331,19.9402857 69.7849007,19.2765714 70.3597351,18.6994286 C70.4890728,18.5695714 70.6184106,18.4541429 70.7491854,18.3531429 C64.5107947,14.0534286 56.9660927,11.5428571 48.8609272,11.5428571 L48.8609272,11.5428571 Z" id="Shape" fill="#999999"></path>
                    <path d="M55.9745033,1.96228571 C56.0319868,2.26528571 56.0463576,2.56828571 56.0463576,2.88571429 C56.0463576,3.56385714 55.9457616,4.22757143 55.7733113,4.848 C77.8613245,8.20985714 94.8476821,27.3854286 94.8476821,50.5 C94.8476821,73.6001429 77.8613245,92.7901429 55.7733113,96.152 C55.9457616,96.7724286 56.0463576,97.4361429 56.0463576,98.1142857 C56.0463576,98.4317143 56.0319868,98.7347143 55.9745033,99.0377143 C79.5570861,95.5748571 97.7218543,75.1295714 97.7218543,50.5 C97.7218543,25.8704286 79.5570861,5.42514286 55.9745033,1.96228571 L55.9745033,1.96228571 Z M2.87417219,50.5 C2.87417219,27.3854286 19.8605298,8.20985714 41.948543,4.848 C41.7760927,4.22757143 41.6754967,3.56385714 41.6754967,2.88571429 C41.6754967,2.56828571 41.6898675,2.26528571 41.747351,1.96228571 C18.1647682,5.42514286 0,25.8704286 0,50.5 C0,75.1295714 18.1647682,95.5748571 41.747351,99.0377143 C41.6898675,98.7347143 41.6754967,98.4317143 41.6754967,98.1142857 C41.6754967,97.4361429 41.7760927,96.7724286 41.948543,96.152 C19.8605298,92.7901429 2.87417219,73.6001429 2.87417219,50.5 L2.87417219,50.5 Z" id="Shape" fill="#999999"></path>
                </g>
                <text id="METEOR+IONIC" sketch:type="MSTextLayer" font-family="Open Sans" font-size="28" font-weight="260" letter-spacing="10.5611391">
                    <tspan x="117.403974" y="93.4857143" fill="#999999">METEOR</tspan>
                    <tspan x="288.532527" y="93.4857143" fill="#DE4F4F">+</tspan>
                    <tspan x="315.076088" y="93.4857143" fill="#999999">IONIC</tspan>
                </text>
                <path d="M171.170426,59.1571429 L171.170426,31.0270647 C171.170426,26.8450126 170.358331,23.7940014 168.734116,21.8739397 C167.109902,19.953878 164.621223,18.9938616 161.268005,18.9938616 C156.893104,18.9938616 153.657821,20.2037453 151.56206,22.6235491 C149.466299,25.0433529 148.418434,28.8439659 148.418434,34.0255022 L148.418434,59.1571429 L144.449607,59.1571429 L144.449607,29.843471 C144.449607,22.6103619 141.148833,18.9938616 134.547185,18.9938616 C130.067496,18.9938616 126.806017,20.3023772 124.76265,22.9194475 C122.719283,25.5365179 121.697615,29.7250828 121.697615,35.4852679 L121.697615,59.1571429 L117.807378,59.1571429 L117.807378,16.271596 L121.029594,16.271596 L121.854796,22.1501116 L122.090568,22.1501116 C123.269434,20.0196322 124.946017,18.369193 127.120369,17.1987444 C129.294721,16.0282959 131.691712,15.4430804 134.311413,15.4430804 C141.044046,15.4430804 145.366488,17.981206 147.27887,23.0575335 L147.436051,23.0575335 C148.824493,20.6114275 150.691002,18.7308473 153.035635,17.4157366 C155.380267,16.1006259 158.045774,15.4430804 161.032233,15.4430804 C165.695301,15.4430804 169.19255,16.6924168 171.524084,19.1911272 C173.855618,21.6898376 175.021368,25.6614125 175.021368,31.105971 L175.021368,59.1571429 L171.170426,59.1571429 Z M206.103968,59.9462054 C199.895276,59.9462054 195.055451,58.0261725 191.584347,54.1860491 C188.113242,50.3459257 186.377716,44.9672035 186.377716,38.049721 C186.377716,31.2111451 188.0543,25.733791 191.407518,21.6174944 C194.760735,17.5011978 199.279652,15.4430804 204.964404,15.4430804 C209.99423,15.4430804 213.963018,17.2053023 216.870887,20.7297991 C219.778755,24.2542959 221.232668,29.0412272 221.232668,35.0907366 L221.232668,38.2469866 L190.46443,38.2469866 C190.516824,44.1386827 191.885597,48.636294 194.570791,51.7399554 C197.255985,54.8436167 201.100339,56.3954241 206.103968,56.3954241 C208.540291,56.3954241 210.681864,56.2244623 212.528754,55.8825335 C214.375643,55.5406047 216.713691,54.8041537 219.542969,53.6731585 L219.542969,57.2239397 C217.132844,58.2760283 214.906131,58.9927529 212.862764,59.374135 C210.819397,59.7555172 208.566488,59.9462054 206.103968,59.9462054 L206.103968,59.9462054 Z M204.964404,18.9149554 C200.851473,18.9149554 197.550699,20.2760746 195.061983,22.9983538 C192.573266,25.720633 191.119354,29.6461797 190.700202,34.7751116 L217.106659,34.7751116 C217.106659,29.803993 216.032597,25.9178991 213.884442,23.1167132 C211.736287,20.3155273 208.762971,18.9149554 204.964404,18.9149554 L204.964404,18.9149554 Z M244.299022,56.4743304 C246.761541,56.4743304 248.909664,56.2639158 250.743455,55.8430804 L250.743455,58.9993304 C248.85727,59.6305835 246.682951,59.9462054 244.220431,59.9462054 C240.448062,59.9462054 237.664671,58.9335853 235.870175,56.9083147 C234.07568,54.8830442 233.178446,51.7005239 233.178446,47.3606585 L233.178446,19.6645647 L226.851899,19.6645647 L226.851899,17.3762835 L233.178446,15.6008929 L235.143212,5.89542411 L237.147273,5.89542411 L237.147273,16.271596 L249.682481,16.271596 L249.682481,19.6645647 L237.147273,19.6645647 L237.147273,46.8083147 C237.147273,50.0960916 237.723599,52.52901 238.876268,54.1071429 C240.028936,55.6852757 241.836503,56.4743304 244.299022,56.4743304 L244.299022,56.4743304 Z M277.228503,59.9462054 C271.019811,59.9462054 266.179985,58.0261725 262.708881,54.1860491 C259.237777,50.3459257 257.502251,44.9672035 257.502251,38.049721 C257.502251,31.2111451 259.178834,25.733791 262.532052,21.6174944 C265.88527,17.5011978 270.404187,15.4430804 276.088938,15.4430804 C281.118765,15.4430804 285.087553,17.2053023 287.995421,20.7297991 C290.90329,24.2542959 292.357202,29.0412272 292.357202,35.0907366 L292.357202,38.2469866 L261.588964,38.2469866 C261.641358,44.1386827 263.010132,48.636294 265.695325,51.7399554 C268.380519,54.8436167 272.224873,56.3954241 277.228503,56.3954241 C279.664825,56.3954241 281.806399,56.2244623 283.653288,55.8825335 C285.500177,55.5406047 287.838226,54.8041537 290.667503,53.6731585 L290.667503,57.2239397 C288.257378,58.2760283 286.030665,58.9927529 283.987298,59.374135 C281.943931,59.7555172 279.691022,59.9462054 277.228503,59.9462054 L277.228503,59.9462054 Z M276.088938,18.9149554 C271.976007,18.9149554 268.675233,20.2760746 266.186517,22.9983538 C263.697801,25.720633 262.243888,29.6461797 261.824736,34.7751116 L288.231193,34.7751116 C288.231193,29.803993 287.157132,25.9178991 285.008977,23.1167132 C282.860822,20.3155273 279.887505,18.9149554 276.088938,18.9149554 L276.088938,18.9149554 Z M339.472294,37.6551897 C339.472294,44.6515789 337.782612,50.1157821 334.403197,54.0479632 C331.023783,57.9801443 326.360784,59.9462054 320.414062,59.9462054 C316.66789,59.9462054 313.367116,59.0387926 310.511641,57.2239397 C307.656167,55.4090869 305.468749,52.8052067 303.949322,49.412221 C302.429895,46.0192353 301.670194,42.100264 301.670194,37.6551897 C301.670194,30.6588006 303.359875,25.2077483 306.73929,21.3018694 C310.118705,17.3959905 314.755507,15.4430804 320.649834,15.4430804 C326.517965,15.4430804 331.122021,17.4222923 334.46214,21.3807757 C337.80226,25.339259 339.472294,30.7640094 339.472294,37.6551897 L339.472294,37.6551897 Z M305.756907,37.6551897 C305.756907,43.5468859 307.047091,48.143129 309.627496,51.4440569 C312.207902,54.7449849 315.855781,56.3954241 320.571244,56.3954241 C325.286706,56.3954241 328.934585,54.7449849 331.514991,51.4440569 C334.095397,48.143129 335.385581,43.5468859 335.385581,37.6551897 C335.385581,31.7371914 334.082299,27.1475237 331.475696,23.8860491 C328.869093,20.6245745 325.208115,18.9938616 320.492653,18.9938616 C315.777191,18.9938616 312.14241,20.617999 309.588201,23.8663225 C307.033992,27.1146461 305.756907,31.7108892 305.756907,37.6551897 L305.756907,37.6551897 Z M368.118584,15.4430804 C369.926178,15.4430804 371.864728,15.6271931 373.934292,15.9954241 L373.187681,19.743471 C371.406284,19.2963333 369.559423,19.0727679 367.647041,19.0727679 C364.005656,19.0727679 361.019241,20.6245753 358.687707,23.7282366 C356.356173,26.831898 355.190423,30.7508692 355.190423,35.4852679 L355.190423,59.1571429 L351.300186,59.1571429 L351.300186,16.271596 L354.600993,16.271596 L354.993947,24.0044085 L355.269014,24.0044085 C357.024214,20.8481427 358.897272,18.6322143 360.888245,17.3565569 C362.879218,16.0808995 365.289307,15.4430804 368.118584,15.4430804 L368.118584,15.4430804 Z M386.508796,59.1571429 L382.618559,59.1571429 L382.618559,16.271596 L386.508796,16.271596 L386.508796,59.1571429 Z M382.068424,4.35675223 C382.068424,1.83173961 382.893618,0.569252232 384.544029,0.569252232 C385.356137,0.569252232 385.991405,0.898024986 386.449853,1.55558036 C386.9083,2.21313573 387.137521,3.14685035 387.137521,4.35675223 C387.137521,5.5403519 386.9083,6.47406652 386.449853,7.15792411 C385.991405,7.84178169 385.356137,8.18370536 384.544029,8.18370536 C382.893618,8.18370536 382.068424,6.90806707 382.068424,4.35675223 L382.068424,4.35675223 Z M417.866463,59.9462054 C411.762559,59.9462054 406.981676,58.0130216 403.52367,54.146596 C400.065665,50.2801704 398.336688,44.8882972 398.336688,37.9708147 C398.336688,30.8692167 400.131156,25.339259 403.720147,21.3807757 C407.309138,17.4222923 412.221004,15.4430804 418.455893,15.4430804 C422.149672,15.4430804 425.686216,16.087475 429.06563,17.3762835 L428.004656,20.8481585 C424.310878,19.6119544 421.101792,18.9938616 418.377302,18.9938616 C413.1379,18.9938616 409.169112,20.617999 406.47082,23.8663225 C403.772527,27.1146461 402.423401,31.7897946 402.423401,37.8919085 C402.423401,43.6783957 403.772527,48.2088843 406.47082,51.48351 C409.169112,54.7581358 412.941425,56.3954241 417.787873,56.3954241 C421.66503,56.3954241 425.267066,55.6984259 428.594086,54.3044085 L428.594086,57.934096 C425.869597,59.2755089 422.293758,59.9462054 417.866463,59.9462054 L417.866463,59.9462054 Z" id="meteoric" fill="#FFFFFF" sketch:type="MSShapeGroup"></path>
            </g>
        </g>
    </g>
</svg>